<svg width="355" height="129" viewBox="0 0 355 129" fill="none" xmlns="http://www.w3.org/2000/svg">
<path d="M23.1817 10.1727C17.6574 10.7195 13.2041 12.5702 10.2024 15.5425C7.45432 18.2765 5.81958 21.8096 4.97402 26.899C4.60762 29.1142 4.60762 35.4795 4.97402 37.6947C5.81958 42.7841 7.45432 46.3172 10.2024 49.0512C13.9792 52.7946 19.574 54.5893 27.4658 54.5893C35.3577 54.5893 41.2202 52.7806 45.0393 48.883C48.5484 45.2938 50.3099 39.7557 50.3099 32.2969C50.3099 23.5201 47.9565 17.6035 42.9959 13.9442C40.2478 11.9253 36.1891 10.5793 31.5668 10.1587C29.6643 9.97644 24.9855 9.99045 23.1817 10.1727ZM29.0301 19.8328C32.0318 20.3094 33.3565 22.2583 33.9907 27.1093C34.2585 29.1563 34.2162 35.9001 33.9202 37.9891C33.6666 39.7697 33.2861 41.2419 32.8069 42.1672C32.37 43.0225 31.3554 44.0179 30.5662 44.3404C29.4811 44.8171 27.7195 44.9993 26.268 44.803C22.6884 44.3263 21.2933 41.9429 20.8423 35.5216C20.6732 33.11 20.7437 29.1703 21.0114 27.0813C21.4624 23.3659 22.5193 21.2488 24.3654 20.3095C25.5351 19.7346 27.2826 19.5523 29.0301 19.8328Z" fill="#FFF0BA"/>
<path d="M78.2105 10.1598C69.614 11.1412 63.5119 15.6838 60.9048 23.0585C59.0023 28.4283 58.96 35.8731 60.8061 41.3831C63.6669 49.8935 71.0796 54.5903 81.7055 54.5903C87.4693 54.5903 92.4158 53.3285 97.1087 50.6506C97.7992 50.258 98.3629 49.8935 98.3629 49.8514C98.3629 49.7954 97.7006 47.2577 96.8973 44.2153L95.4458 38.6772H90.2738L90.161 39.224C89.9778 40.0652 89.2591 41.4252 88.5827 42.1963C87.3566 43.5703 85.736 44.2153 83.4811 44.2153C81.0854 44.2153 79.6198 43.7526 78.3514 42.5749C76.7449 41.1027 75.9839 38.9156 75.6597 34.9478C75.4202 31.8773 75.6175 28.5265 76.1812 26.0589C76.914 22.9604 78.7319 21.0115 81.3672 20.5348C82.5651 20.3105 84.6367 20.3386 85.6091 20.5909C87.7794 21.1658 89.3296 22.694 90.0624 25.0073L90.302 25.7785H95.4458L96.8973 20.3105C97.7006 17.2961 98.3629 14.8005 98.3629 14.7444C98.3629 14.6884 97.7288 14.2958 96.9678 13.8612C93.346 11.8282 89.3859 10.5664 85.2709 10.1458C83.5939 9.97752 79.7466 9.99153 78.2105 10.1598Z" fill="#FFF0BA"/>
<path d="M106.904 10.9439C106.763 11.3645 105.551 17.4774 105.551 17.7298C105.551 17.912 105.734 17.9681 106.467 18.0242C107.636 18.1223 108.341 18.4869 108.708 19.2019C109.003 19.7487 109.003 19.8889 109.003 32.2969C109.003 44.705 109.003 44.8452 108.708 45.392C108.341 46.107 107.636 46.4715 106.467 46.5697C105.734 46.6257 105.551 46.6818 105.551 46.8641C105.551 47.1165 106.763 53.2293 106.904 53.6359C106.974 53.8743 107.566 53.8883 116.613 53.8883C125.661 53.8883 126.253 53.8743 126.323 53.6359C126.464 53.2293 127.676 47.1165 127.676 46.8641C127.676 46.6818 127.493 46.6257 126.76 46.5697C125.59 46.4715 124.886 46.107 124.519 45.392C124.238 44.8872 124.223 44.5647 124.181 40.5269L124.139 36.2226H135.441L135.399 40.5269C135.357 44.5647 135.343 44.8872 135.061 45.392C134.694 46.107 133.99 46.4715 132.82 46.5697C132.087 46.6257 131.904 46.6818 131.904 46.8641C131.904 47.1165 133.116 53.2293 133.257 53.6359C133.327 53.8743 133.919 53.8883 142.967 53.8883C152.014 53.8883 152.606 53.8743 152.676 53.6359C152.817 53.2293 154.029 47.1165 154.029 46.8641C154.029 46.6818 153.846 46.6257 153.113 46.5697C151.944 46.4715 151.239 46.107 150.873 45.392C150.577 44.8452 150.577 44.705 150.577 32.2969C150.577 19.8889 150.577 19.7487 150.873 19.2019C151.239 18.4869 151.944 18.1223 153.113 18.0242C153.846 17.9681 154.029 17.912 154.029 17.7298C154.029 17.4774 152.817 11.3645 152.676 10.9439C152.606 10.7196 152.014 10.7056 142.967 10.7056C133.919 10.7056 133.327 10.7196 133.257 10.9439C133.116 11.3645 131.904 17.4774 131.904 17.7298C131.904 17.912 132.087 17.9681 132.82 18.0242C133.99 18.1223 134.694 18.4869 135.061 19.2019C135.328 19.7066 135.357 20.0431 135.399 23.0715L135.455 26.4084H124.125L124.181 23.0715C124.223 20.0431 124.252 19.7066 124.519 19.2019C124.886 18.4869 125.59 18.1223 126.76 18.0242C127.493 17.9681 127.676 17.912 127.676 17.7298C127.676 17.4774 126.464 11.3645 126.323 10.9439C126.253 10.7196 125.661 10.7056 116.613 10.7056C107.566 10.7056 106.974 10.7196 106.904 10.9439Z" fill="#FFF0BA"/>
<path d="M163.275 10.9439C163.134 11.3645 161.922 17.4774 161.922 17.7298C161.922 17.912 162.105 17.9681 162.838 18.0242C164.008 18.1223 164.712 18.4869 165.079 19.2019C165.375 19.7487 165.375 19.8889 165.375 32.2969C165.375 44.705 165.375 44.8452 165.079 45.392C164.712 46.107 164.008 46.4715 162.838 46.5697C162.105 46.6257 161.922 46.6818 161.922 46.8641C161.922 47.1165 163.134 53.2293 163.275 53.6359C163.345 53.8743 164.304 53.8883 180.82 53.8883C190.417 53.8883 198.281 53.8743 198.295 53.8462C198.408 53.4817 199.761 41.7326 199.704 41.6625C199.577 41.5223 194.053 40.5549 193.898 40.639C193.828 40.6951 193.771 40.8494 193.771 40.9896C193.771 41.4522 193.334 42.5739 192.912 43.1907C192.348 44.0039 191.122 44.5788 189.543 44.7751C188.895 44.8452 186.598 44.9153 184.442 44.9153H180.524V36.503H183.103C186.063 36.503 186.908 36.6713 187.472 37.3302C187.669 37.5686 187.866 38.0172 187.909 38.3818C187.965 38.7323 188.05 39.0267 188.106 39.0267C188.162 39.0127 189.473 38.7042 191.023 38.3397L193.842 37.6667L193.884 32.0305C193.898 28.9461 193.87 26.4084 193.813 26.4084C193.743 26.4084 192.418 26.0999 190.868 25.7354L188.021 25.0484L187.937 25.6092C187.782 26.5205 187.472 26.9692 186.753 27.2917C186.175 27.544 185.738 27.5861 183.314 27.6422L180.524 27.7123V19.5384H183.935C187.866 19.5384 188.853 19.6646 189.797 20.2955C190.502 20.7722 191.15 21.8237 191.305 22.7911C191.361 23.0855 191.46 23.3519 191.516 23.394C191.629 23.4641 196.28 22.721 196.914 22.5388C197.139 22.4687 197.153 22.0621 197.153 16.5801V10.7056H180.256C164.275 10.7056 163.345 10.7196 163.275 10.9439Z" fill="#FFF0BA"/>
<path d="M207.194 14.2387C206.785 16.1875 206.461 17.8279 206.461 17.87C206.461 17.9261 206.898 17.9961 207.433 18.0242C208.504 18.1083 209.153 18.3887 209.618 19.0196C209.815 19.2814 209.914 23.7071 209.914 32.2969C209.914 40.8867 209.815 45.3125 209.618 45.5742C209.153 46.2051 208.504 46.4855 207.433 46.5697C206.898 46.5977 206.461 46.6678 206.461 46.7239C206.461 46.7659 206.785 48.4063 207.194 50.3411L207.927 53.8883H216.128C223.823 53.8883 224.344 53.8743 224.415 53.6359C224.556 53.2293 225.768 47.1165 225.768 46.8641C225.768 46.6818 225.585 46.6257 224.852 46.5697C223.682 46.4715 222.977 46.107 222.611 45.392C222.329 44.8732 222.315 44.5507 222.216 37.9051C222.174 34.0915 222.09 30.5163 222.033 29.9836L221.935 29.0021L222.977 30.8949C224.443 33.5307 224.091 33.026 231.898 43.9759L238.944 53.8743L244.751 53.8883H250.571L250.599 36.6573L250.641 19.4122L250.937 19.0196C251.402 18.3887 252.051 18.1083 253.122 18.0242C253.657 17.9961 254.094 17.9261 254.094 17.87C254.094 17.8279 253.77 16.1875 253.361 14.2387L252.628 10.7056H244.426C236.732 10.7056 236.21 10.7196 236.14 10.9439C235.999 11.3645 234.787 17.4774 234.787 17.7298C234.787 17.912 234.97 17.9681 235.703 18.0242C236.873 18.1223 237.577 18.4869 237.944 19.2019C238.226 19.7207 238.24 20.0572 238.338 25.427C238.381 28.5535 238.465 31.6099 238.522 32.2268L238.606 33.3485L237.634 31.5118C236.309 29.0162 236.112 28.7217 229.291 19.1318L223.302 10.7196L215.607 10.7056H207.927L207.194 14.2387Z" fill="#FFF0BA"/>
<path d="M261.004 10.8738C261.004 10.9719 260.68 13.762 260.285 17.0568C259.891 20.3656 259.595 23.0855 259.623 23.1136C259.693 23.1837 265.401 24.1932 265.443 24.1371C265.457 24.109 265.542 23.7866 265.64 23.422C266.035 21.7816 266.895 20.7301 268.177 20.3095C269.037 20.0291 270.657 19.8328 272.109 19.8188H273.279L273.236 32.325C273.194 44.6629 273.194 44.8592 272.898 45.392C272.532 46.107 271.827 46.4715 270.657 46.5697C269.925 46.6257 269.741 46.6818 269.741 46.8641C269.741 47.1165 270.953 53.2293 271.094 53.6359C271.165 53.8743 271.757 53.8883 280.804 53.8883C289.852 53.8883 290.443 53.8743 290.514 53.6359C290.655 53.2293 291.867 47.1165 291.867 46.8641C291.867 46.6818 291.684 46.6257 290.951 46.5697C289.781 46.4715 289.077 46.107 288.71 45.392C288.414 44.8592 288.414 44.6629 288.372 32.325L288.33 19.8188H289.499C290.852 19.8328 292.388 20.0011 293.22 20.2254C294.53 20.5759 295.489 21.6274 295.883 23.1276C296.024 23.6604 296.151 24.109 296.179 24.1371C296.207 24.1932 301.915 23.1837 301.985 23.1136C302.014 23.0855 301.718 20.3656 301.323 17.0568C300.928 13.762 300.604 10.9719 300.604 10.8738C300.604 10.7476 296.546 10.7056 280.804 10.7056C265.063 10.7056 261.004 10.7476 261.004 10.8738Z" fill="#FFF0BA"/>
<path d="M313.836 10.7336C313.709 11.1122 312.371 17.884 312.427 17.9261C312.455 17.9681 312.751 17.9962 313.061 17.9962C313.766 17.9962 314.724 18.4168 315.034 18.8514C315.161 19.0337 315.26 19.4543 315.26 19.8188C315.26 20.7021 307.72 44.2142 307.128 45.1676C306.565 46.079 305.789 46.4855 304.451 46.5697C303.521 46.6257 303.422 46.6678 303.422 46.9342C303.436 47.0884 303.732 48.7148 304.098 50.5234L304.775 53.8182H320.812L321.489 50.5234C321.855 48.7148 322.151 47.0884 322.165 46.9061C322.165 46.6398 322.095 46.5977 321.672 46.5977C320.967 46.5977 320.263 46.2752 319.953 45.8126C319.657 45.3499 319.657 44.2002 319.953 43.2328L320.15 42.6019L326.351 42.5598L332.551 42.5318L332.734 43.1206C333.016 44.06 333.073 45.2658 332.875 45.7565C332.664 46.2612 332.1 46.5977 331.466 46.5977C331.114 46.5977 331.043 46.6538 331.043 46.9061C331.057 47.0884 331.353 48.7148 331.72 50.5234L332.396 53.8182H351.393L352.07 50.5234C352.436 48.7148 352.732 47.0884 352.746 46.9061C352.746 46.6257 352.676 46.5977 351.999 46.5977C350.407 46.5977 349.448 46.0649 348.828 44.8452C348.377 43.9479 340.767 20.2114 340.767 19.7066C340.767 18.6271 341.599 17.9962 343.022 17.9962C343.417 17.9962 343.727 17.9541 343.727 17.884C343.727 17.8279 343.403 16.1875 343.008 14.2387L342.275 10.7056H328.056C320.248 10.7056 313.85 10.7196 313.836 10.7336ZM327.083 19.0477C327.323 21.0246 327.901 24.6138 328.169 25.7775C328.281 26.3102 328.789 28.3011 329.296 30.1799C329.789 32.0446 330.198 33.6148 330.198 33.6429C330.198 33.6709 328.507 33.699 326.449 33.699C322.954 33.699 322.715 33.6849 322.785 33.4466C324.194 28.7918 325.843 22.1181 326.548 18.2345C326.647 17.7157 326.773 17.3652 326.816 17.4634C326.872 17.5615 326.985 18.2766 327.083 19.0477Z" fill="#FFF0BA"/>
<path d="M76.8832 73.6874C75.1216 73.8556 72.3313 74.4304 70.8516 74.9352C64.6508 76.9962 60.8881 81.1602 59.2111 87.7919C58.5628 90.3436 58.4219 91.7736 58.4219 95.8115C58.4219 98.882 58.4782 99.9756 58.6755 101.209C59.5211 106.299 61.1558 109.832 63.9039 112.566C67.6807 116.309 73.2755 118.104 81.1673 118.104C89.0592 118.104 94.9217 116.295 98.7408 112.398C102.25 108.808 104.011 103.27 104.011 95.8115C104.011 87.0348 101.658 81.1182 96.6974 77.4588C93.9493 75.4399 89.8907 74.094 85.2683 73.6733C83.3658 73.4911 78.687 73.5051 76.8832 73.6874ZM82.7316 83.3474C85.7333 83.8241 87.0581 85.7729 87.6922 90.624C87.96 92.671 87.9177 99.4147 87.6218 101.504C87.3681 103.284 86.9876 104.757 86.5084 105.682C86.0716 106.537 85.0569 107.533 84.2677 107.855C83.1826 108.332 81.421 108.514 79.9695 108.318C76.39 107.841 74.9948 105.458 74.5438 99.0362C74.3747 96.6247 74.4452 92.685 74.7129 90.5959C75.1639 86.8805 76.2208 84.7635 78.067 83.8241C79.2367 83.2493 80.9841 83.067 82.7316 83.3474Z" fill="#FFF0BA"/>
<path d="M3.68594 77.7514C3.27725 79.7002 2.95312 81.3406 2.95312 81.3827C2.95312 81.4387 3.38999 81.5088 3.92551 81.5369C4.99655 81.621 5.64481 81.9014 6.10987 82.5323C6.30716 82.7941 6.40581 87.2198 6.40581 95.8096C6.40581 104.399 6.30716 108.825 6.10987 109.087C5.64481 109.718 4.99655 109.998 3.92551 110.082C3.38999 110.11 2.95312 110.181 2.95312 110.237C2.95312 110.279 3.27725 111.919 3.68594 113.854L4.41876 117.401H12.6207C20.3152 117.401 20.8366 117.387 20.9071 117.149C21.048 116.742 22.26 110.629 22.26 110.377C22.26 110.195 22.0768 110.138 21.344 110.082C20.1743 109.984 19.4697 109.62 19.1033 108.905C18.8214 108.386 18.8073 108.063 18.7087 101.418C18.6664 97.6042 18.5818 94.029 18.5255 93.4963L18.4268 92.5148L19.4697 94.4076C20.9353 97.0434 20.583 96.5387 28.3903 107.489L35.4366 117.387L41.2427 117.401H47.063L47.0912 100.17L47.1334 82.9249L47.4294 82.5323C47.8944 81.9014 48.5427 81.621 49.6137 81.5369C50.1493 81.5088 50.5861 81.4387 50.5861 81.3827C50.5861 81.3406 50.262 79.7002 49.8533 77.7514L49.1205 74.2183H40.9186C33.224 74.2183 32.7026 74.2323 32.6322 74.4566C32.4912 74.8772 31.2793 80.9901 31.2793 81.2425C31.2793 81.4247 31.4625 81.4808 32.1953 81.5369C33.365 81.635 34.0696 81.9996 34.436 82.7146C34.7179 83.2334 34.732 83.5698 34.8306 88.9396C34.8729 92.0662 34.9574 95.1226 35.0138 95.7395L35.0984 96.8612L34.126 95.0245C32.8013 92.5289 32.604 92.2344 25.7831 82.6445L19.7938 74.2323L12.0992 74.2183H4.41876L3.68594 77.7514Z" fill="#FFF0BA"/>
<path d="M108.882 77.5411C108.516 79.3777 108.178 81.0041 108.149 81.1724C108.079 81.4387 108.149 81.4808 109.023 81.5649C110.644 81.7332 111.489 82.2519 112.109 83.4717C112.279 83.8222 115.238 91.5895 118.662 100.745L124.906 117.401H140.041L146.284 100.745C149.708 91.5895 152.71 83.7381 152.95 83.2754C153.556 82.1538 154.134 81.7893 155.67 81.607C156.769 81.4668 156.868 81.4247 156.797 81.1583C156.769 81.0041 156.431 79.3777 156.064 77.5411L155.402 74.2183H138.434L137.772 77.5411C137.406 79.3777 137.067 81.0181 137.039 81.1724C136.969 81.4387 137.039 81.4808 137.716 81.5649C138.787 81.7051 139.322 82.0556 139.534 82.7847C139.717 83.3595 139.689 83.4857 137.518 89.9071C135.362 96.2863 134.897 97.8846 133.953 102.189C133.699 103.339 133.46 104.194 133.417 104.082C133.375 103.969 133.178 102.89 132.966 101.698C132.304 97.8566 131.684 95.4451 129.88 89.5145C128.908 86.3319 128.105 83.5138 128.105 83.2614C128.105 82.2379 128.541 81.7893 129.739 81.593L130.317 81.4948L129.627 78.1019C129.26 76.2372 128.908 74.5968 128.866 74.4706C128.795 74.2323 128.245 74.2183 119.17 74.2183H109.545L108.882 77.5411Z" fill="#FFF0BA"/>
<path d="M164.267 74.4566C164.126 74.8772 162.914 80.9901 162.914 81.2425C162.914 81.4247 163.097 81.4808 163.83 81.5369C165 81.635 165.704 81.9996 166.071 82.7146C166.367 83.2614 166.367 83.4016 166.367 95.8096C166.367 108.218 166.367 108.358 166.071 108.905C165.704 109.62 165 109.984 163.83 110.082C163.097 110.138 162.914 110.195 162.914 110.377C162.914 110.629 164.126 116.742 164.267 117.149C164.337 117.387 165.296 117.401 181.812 117.401C191.409 117.401 199.273 117.387 199.287 117.359C199.4 116.994 200.753 105.245 200.696 105.175C200.569 105.035 195.045 104.068 194.89 104.152C194.82 104.208 194.763 104.362 194.763 104.502C194.763 104.965 194.326 106.087 193.904 106.703C193.34 107.517 192.114 108.091 190.536 108.288C189.887 108.358 187.59 108.428 185.434 108.428H181.516V100.016H184.095C187.055 100.016 187.9 100.184 188.464 100.843C188.661 101.081 188.859 101.53 188.901 101.894C188.957 102.245 189.042 102.539 189.098 102.539C189.154 102.525 190.465 102.217 192.015 101.852L194.834 101.179L194.876 95.5432C194.89 92.4588 194.862 89.9211 194.806 89.9211C194.735 89.9211 193.41 89.6126 191.86 89.2481L189.014 88.5611L188.929 89.1219C188.774 90.0332 188.464 90.4819 187.745 90.8044C187.167 91.0567 186.731 91.0988 184.307 91.1549L181.516 91.225V83.0511H184.927C188.859 83.0511 189.845 83.1773 190.789 83.8082C191.494 84.2849 192.142 85.3364 192.297 86.3038C192.354 86.5982 192.452 86.8646 192.509 86.9067C192.621 86.9768 197.272 86.2337 197.906 86.0515C198.131 85.9814 198.146 85.5748 198.146 80.0928V74.2183H181.249C165.268 74.2183 164.337 74.2323 164.267 74.4566Z" fill="#FFF0BA"/>
<path d="M208.037 77.7514C207.629 79.7002 207.305 81.3406 207.305 81.3827C207.305 81.4387 207.742 81.5088 208.277 81.5369C209.348 81.621 209.996 81.9014 210.461 82.5323C210.659 82.7941 210.757 87.2198 210.757 95.8096C210.757 104.399 210.659 108.825 210.461 109.087C209.996 109.718 209.348 109.998 208.277 110.082C207.742 110.11 207.305 110.181 207.305 110.237C207.305 110.279 207.629 111.919 208.037 113.854L208.77 117.401H216.972C224.667 117.401 225.188 117.387 225.259 117.149C225.4 116.742 226.612 110.629 226.612 110.377C226.612 110.195 226.428 110.138 225.696 110.082C224.526 109.984 223.821 109.62 223.455 108.905C223.173 108.386 223.159 108.063 223.06 101.418C223.018 97.6042 222.933 94.029 222.877 93.4963L222.778 92.5148L223.821 94.4076C225.287 97.0434 224.935 96.5387 232.742 107.489L239.788 117.387L245.594 117.401H251.415L251.443 100.17L251.485 82.9249L251.781 82.5323C252.246 81.9014 252.894 81.621 253.965 81.5369C254.501 81.5088 254.938 81.4387 254.938 81.3827C254.938 81.3406 254.614 79.7002 254.205 77.7514L253.472 74.2183H245.27C237.576 74.2183 237.054 74.2323 236.984 74.4566C236.843 74.8772 235.631 80.9901 235.631 81.2425C235.631 81.4247 235.814 81.4808 236.547 81.5369C237.717 81.635 238.421 81.9996 238.788 82.7146C239.069 83.2334 239.084 83.5698 239.182 88.9396C239.224 92.0662 239.309 95.1226 239.365 95.7395L239.45 96.8612L238.478 95.0245C237.153 92.5289 236.956 92.2344 230.135 82.6445L224.145 74.2323L216.451 74.2183H208.77L208.037 77.7514Z" fill="#FFF0BA"/>
<path d="M261.852 74.3865C261.852 74.4846 261.528 77.2747 261.133 80.5695C260.738 83.8783 260.442 86.5982 260.471 86.6263C260.541 86.6964 266.249 87.7059 266.291 87.6498C266.305 87.6217 266.389 87.2993 266.488 86.9347C266.883 85.2943 267.742 84.2428 269.025 83.8222C269.884 83.5418 271.505 83.3455 272.957 83.3315H274.126L274.084 95.8377C274.042 108.176 274.042 108.372 273.746 108.905C273.379 109.62 272.675 109.984 271.505 110.082C270.772 110.138 270.589 110.195 270.589 110.377C270.589 110.629 271.801 116.742 271.942 117.149C272.012 117.387 272.604 117.401 281.652 117.401C290.699 117.401 291.291 117.387 291.362 117.149C291.503 116.742 292.715 110.629 292.715 110.377C292.715 110.195 292.531 110.138 291.798 110.082C290.629 109.984 289.924 109.62 289.558 108.905C289.262 108.372 289.262 108.176 289.22 95.8377L289.177 83.3315H290.347C291.7 83.3455 293.236 83.5138 294.067 83.7381C295.378 84.0886 296.336 85.1401 296.731 86.6403C296.872 87.1731 296.999 87.6217 297.027 87.6498C297.055 87.7059 302.763 86.6964 302.833 86.6263C302.861 86.5982 302.565 83.8783 302.171 80.5695C301.776 77.2747 301.452 74.4846 301.452 74.3865C301.452 74.2603 297.393 74.2183 281.652 74.2183C265.91 74.2183 261.852 74.2603 261.852 74.3865Z" fill="#FFF0BA"/>
<path d="M314.825 74.2463C314.698 74.6248 313.359 81.3967 313.415 81.4387C313.444 81.4808 313.739 81.5089 314.049 81.5089C314.754 81.5089 315.712 81.9295 316.022 82.3641C316.149 82.5464 316.248 82.967 316.248 83.3315C316.248 84.2148 308.708 107.727 308.117 108.68C307.553 109.592 306.778 109.998 305.439 110.082C304.509 110.138 304.41 110.181 304.41 110.447C304.424 110.601 304.72 112.227 305.087 114.036L305.763 117.331H321.8L322.477 114.036C322.843 112.227 323.139 110.601 323.153 110.419C323.153 110.152 323.083 110.11 322.66 110.11C321.955 110.11 321.251 109.788 320.941 109.325C320.645 108.863 320.645 107.713 320.941 106.746L321.138 106.115L327.339 106.073L333.54 106.044L333.723 106.633C334.005 107.573 334.061 108.778 333.864 109.269C333.652 109.774 333.089 110.11 332.454 110.11C332.102 110.11 332.032 110.166 332.032 110.419C332.046 110.601 332.342 112.227 332.708 114.036L333.385 117.331H352.381L353.058 114.036C353.424 112.227 353.72 110.601 353.734 110.419C353.734 110.138 353.664 110.11 352.987 110.11C351.395 110.11 350.437 109.578 349.817 108.358C349.366 107.461 341.756 83.7241 341.756 83.2193C341.756 82.1398 342.587 81.5089 344.01 81.5089C344.405 81.5089 344.715 81.4668 344.715 81.3967C344.715 81.3406 344.391 79.7002 343.996 77.7514L343.263 74.2183H329.044C321.237 74.2183 314.839 74.2323 314.825 74.2463ZM328.072 82.5604C328.311 84.5373 328.889 88.1265 329.157 89.2902C329.27 89.8229 329.777 91.8138 330.284 93.6926C330.777 95.5573 331.186 97.1275 331.186 97.1556C331.186 97.1836 329.495 97.2117 327.437 97.2117C323.942 97.2117 323.703 97.1976 323.773 96.9593C325.183 92.3045 326.832 85.6308 327.536 81.7472C327.635 81.2284 327.762 80.8779 327.804 80.9761C327.86 81.0742 327.973 81.7893 328.072 82.5604Z" fill="#FFF0BA"/>
</svg>
