<svg width="102" height="37" viewBox="0 0 102 37" fill="none" xmlns="http://www.w3.org/2000/svg">
<path d="M6.66201 2.91725C5.07475 3.07409 3.79522 3.6049 2.93275 4.45743C2.14317 5.24159 1.67347 6.25497 1.43052 7.71472C1.32524 8.35009 1.32524 10.1758 1.43052 10.8112C1.67347 12.2709 2.14317 13.2843 2.93275 14.0684C4.01792 15.1421 5.62543 15.6569 7.89295 15.6569C10.1605 15.6569 11.8449 15.1381 12.9422 14.0202C13.9505 12.9907 14.4566 11.4023 14.4566 9.26294C14.4566 6.74558 13.7804 5.04857 12.3551 3.999C11.5655 3.41992 10.3994 3.03387 9.07125 2.91323C8.52462 2.86095 7.1803 2.86498 6.66201 2.91725ZM8.34241 5.68796C9.20488 5.82469 9.58549 6.38365 9.76771 7.77504C9.84464 8.36216 9.83249 10.2964 9.74746 10.8956C9.67458 11.4063 9.56525 11.8286 9.42758 12.094C9.30205 12.3393 9.01052 12.6248 8.78376 12.7173C8.47198 12.854 7.96584 12.9063 7.54878 12.85C6.52029 12.7133 6.11943 12.0296 5.98986 10.1878C5.94127 9.49618 5.96151 8.36618 6.03845 7.767C6.16802 6.70134 6.4717 6.09412 7.00214 5.82469C7.33822 5.65981 7.84031 5.60753 8.34241 5.68796Z" fill="#FFF0BA"/>
<path d="M22.4687 2.91424C19.9987 3.19574 18.2454 4.49865 17.4963 6.61388C16.9497 8.15406 16.9376 10.2894 17.468 11.8698C18.29 14.3107 20.4198 15.6579 23.4729 15.6579C25.129 15.6579 26.5502 15.296 27.8986 14.5279C28.097 14.4153 28.259 14.3107 28.259 14.2987C28.259 14.2826 28.0687 13.5547 27.8379 12.6821L27.4208 11.0937H25.9348L25.9024 11.2505C25.8497 11.4918 25.6432 11.8818 25.4489 12.103C25.0966 12.4971 24.6309 12.6821 23.9831 12.6821C23.2947 12.6821 22.8736 12.5494 22.5092 12.2116C22.0476 11.7894 21.8289 11.162 21.7358 10.024C21.667 9.14331 21.7236 8.18221 21.8856 7.47445C22.0962 6.58573 22.6185 6.02676 23.3757 5.89004C23.7199 5.8257 24.3151 5.83374 24.5945 5.90612C25.2181 6.071 25.6635 6.50933 25.874 7.17285L25.9429 7.39402H27.4208L27.8379 5.8257C28.0687 4.96111 28.259 4.24531 28.259 4.22922C28.259 4.21314 28.0768 4.10054 27.8581 3.97588C26.8175 3.39278 25.6797 3.03086 24.4973 2.91022C24.0155 2.86197 22.91 2.86599 22.4687 2.91424Z" fill="#FFF0BA"/>
<path d="M30.7168 3.13867C30.6764 3.25931 30.3281 5.01262 30.3281 5.08501C30.3281 5.13728 30.3808 5.15337 30.5913 5.16945C30.9274 5.1976 31.1299 5.30216 31.2351 5.50725C31.3202 5.66408 31.3202 5.70429 31.3202 9.26319C31.3202 12.8221 31.3202 12.8623 31.2351 13.0191C31.1299 13.2242 30.9274 13.3288 30.5913 13.3569C30.3808 13.373 30.3281 13.3891 30.3281 13.4414C30.3281 13.5137 30.6764 15.2671 30.7168 15.3837C30.7371 15.452 30.9072 15.4561 33.5067 15.4561C36.1063 15.4561 36.2763 15.452 36.2966 15.3837C36.3371 15.2671 36.6853 13.5137 36.6853 13.4414C36.6853 13.3891 36.6326 13.373 36.4221 13.3569C36.086 13.3288 35.8835 13.2242 35.7783 13.0191C35.6973 12.8744 35.6932 12.7819 35.6811 11.6237L35.6689 10.3892H38.9164L38.9042 11.6237C38.8921 12.7819 38.888 12.8744 38.807 13.0191C38.7018 13.2242 38.4993 13.3288 38.1632 13.3569C37.9527 13.373 37.9 13.3891 37.9 13.4414C37.9 13.5137 38.2482 15.2671 38.2887 15.3837C38.309 15.452 38.479 15.4561 41.0786 15.4561C43.6781 15.4561 43.8482 15.452 43.8685 15.3837C43.9089 15.2671 44.2572 13.5137 44.2572 13.4414C44.2572 13.3891 44.2045 13.373 43.994 13.3569C43.6579 13.3288 43.4554 13.2242 43.3502 13.0191C43.2651 12.8623 43.2651 12.8221 43.2651 9.26319C43.2651 5.70429 43.2651 5.66408 43.3502 5.50725C43.4554 5.30216 43.6579 5.1976 43.994 5.16945C44.2045 5.15337 44.2572 5.13728 44.2572 5.08501C44.2572 5.01262 43.9089 3.25931 43.8685 3.13867C43.8482 3.07433 43.6781 3.07031 41.0786 3.07031C38.479 3.07031 38.309 3.07433 38.2887 3.13867C38.2482 3.25931 37.9 5.01262 37.9 5.08501C37.9 5.13728 37.9527 5.15337 38.1632 5.16945C38.4993 5.1976 38.7018 5.30216 38.807 5.50725C38.884 5.65202 38.8921 5.74853 38.9042 6.61714L38.9204 7.57422H35.6649L35.6811 6.61714C35.6932 5.74853 35.7013 5.65202 35.7783 5.50725C35.8835 5.30216 36.086 5.1976 36.4221 5.16945C36.6326 5.15337 36.6853 5.13728 36.6853 5.08501C36.6853 5.01262 36.3371 3.25931 36.2966 3.13867C36.2763 3.07433 36.1063 3.07031 33.5067 3.07031C30.9072 3.07031 30.7371 3.07433 30.7168 3.13867Z" fill="#FFF0BA"/>
<path d="M46.9122 3.13867C46.8717 3.25931 46.5234 5.01262 46.5234 5.08501C46.5234 5.13728 46.5761 5.15337 46.7866 5.16945C47.1227 5.1976 47.3252 5.30216 47.4304 5.50725C47.5155 5.66408 47.5155 5.70429 47.5155 9.26319C47.5155 12.8221 47.5155 12.8623 47.4304 13.0191C47.3252 13.2242 47.1227 13.3288 46.7866 13.3569C46.5761 13.373 46.5234 13.3891 46.5234 13.4414C46.5234 13.5137 46.8717 15.2671 46.9122 15.3837C46.9324 15.452 47.2077 15.4561 51.9533 15.4561C54.7108 15.4561 56.9702 15.452 56.9743 15.444C57.0067 15.3394 57.3954 11.9696 57.3792 11.9494C57.3427 11.9092 55.7555 11.6318 55.7109 11.6559C55.6907 11.672 55.6745 11.7162 55.6745 11.7564C55.6745 11.8891 55.549 12.2108 55.4275 12.3878C55.2655 12.621 54.9133 12.7859 54.4598 12.8422C54.2735 12.8623 53.6135 12.8824 52.994 12.8824H51.8683V10.4696H52.6093C53.4596 10.4696 53.7026 10.5178 53.8645 10.7068C53.9212 10.7752 53.9779 10.9039 53.9901 11.0085C54.0063 11.109 54.0305 11.1934 54.0467 11.1934C54.0629 11.1894 54.4395 11.1009 54.8849 10.9964L55.6947 10.8034L55.7069 9.18678C55.7109 8.30208 55.7028 7.57422 55.6866 7.57422C55.6664 7.57422 55.2858 7.48575 54.8404 7.38119L54.0224 7.18415L53.9982 7.34501C53.9536 7.60639 53.8645 7.73508 53.658 7.82757C53.492 7.89995 53.3665 7.91201 52.67 7.9281L51.8683 7.94821V5.60376H52.8482C53.9779 5.60376 54.2614 5.63995 54.5326 5.82091C54.7351 5.95764 54.9214 6.25924 54.9659 6.53671C54.9821 6.62116 55.0104 6.69757 55.0266 6.70963C55.059 6.72974 56.3952 6.51661 56.5775 6.46433C56.6422 6.44422 56.6463 6.3276 56.6463 4.75526V3.07031H51.7914C47.1996 3.07031 46.9324 3.07433 46.9122 3.13867Z" fill="#FFF0BA"/>
<path d="M59.5309 4.08369C59.4134 4.64266 59.3203 5.11316 59.3203 5.12522C59.3203 5.1413 59.4458 5.16141 59.5997 5.16945C59.9074 5.19358 60.0937 5.27401 60.2273 5.45497C60.284 5.53004 60.3124 6.79944 60.3124 9.26319C60.3124 11.7269 60.284 12.9963 60.2273 13.0714C60.0937 13.2524 59.9074 13.3328 59.5997 13.3569C59.4458 13.365 59.3203 13.3851 59.3203 13.4012C59.3203 13.4132 59.4134 13.8837 59.5309 14.4387L59.7414 15.4561H62.098C64.3089 15.4561 64.4587 15.452 64.4789 15.3837C64.5194 15.2671 64.8676 13.5137 64.8676 13.4414C64.8676 13.3891 64.815 13.373 64.6044 13.3569C64.2684 13.3288 64.0659 13.2242 63.9606 13.0191C63.8796 12.8703 63.8756 12.7778 63.8473 10.8717C63.8351 9.77792 63.8108 8.75247 63.7946 8.59966L63.7663 8.31817L64.0659 8.86105C64.487 9.61706 64.3858 9.4723 66.629 12.613L68.6536 15.452L70.3218 15.4561H71.9941L72.0022 10.5138L72.0144 5.56757L72.0994 5.45497C72.233 5.27401 72.4193 5.19358 72.727 5.16945C72.8809 5.16141 73.0064 5.1413 73.0064 5.12522C73.0064 5.11316 72.9133 4.64266 72.7959 4.08369L72.5853 3.07031H70.2287C68.0179 3.07031 67.8681 3.07433 67.8478 3.13867C67.8073 3.25931 67.4591 5.01262 67.4591 5.08501C67.4591 5.13728 67.5117 5.15337 67.7223 5.16945C68.0584 5.1976 68.2608 5.30216 68.3661 5.50725C68.4471 5.65604 68.4511 5.75255 68.4795 7.29273C68.4916 8.18949 68.5159 9.06614 68.5321 9.24308L68.5564 9.56479L68.277 9.03799C67.8964 8.32219 67.8397 8.23774 65.8799 5.48714L64.159 3.07433L61.9482 3.07031H59.7414L59.5309 4.08369Z" fill="#FFF0BA"/>
<path d="M74.9911 3.11857C74.9911 3.14672 74.898 3.94697 74.7846 4.89198C74.6712 5.84102 74.5862 6.62116 74.5943 6.6292C74.6145 6.64931 76.2544 6.93885 76.2666 6.92276C76.2706 6.91472 76.2949 6.82223 76.3233 6.71767C76.4366 6.24717 76.6836 5.94557 77.0521 5.82493C77.2991 5.74451 77.7648 5.68821 78.1818 5.68419H78.5179L78.5058 9.27123C78.4936 12.81 78.4936 12.8663 78.4086 13.0191C78.3033 13.2242 78.1008 13.3288 77.7648 13.3569C77.5542 13.373 77.5016 13.3891 77.5016 13.4414C77.5016 13.5137 77.8498 15.2671 77.8903 15.3837C77.9105 15.452 78.0806 15.4561 80.6801 15.4561C83.2797 15.4561 83.4498 15.452 83.47 15.3837C83.5105 15.2671 83.8587 13.5137 83.8587 13.4414C83.8587 13.3891 83.8061 13.373 83.5955 13.3569C83.2595 13.3288 83.057 13.2242 82.9517 13.0191C82.8667 12.8663 82.8667 12.81 82.8545 9.27123L82.8424 5.68419H83.1785C83.5672 5.68821 84.0085 5.73647 84.2474 5.80081C84.624 5.90134 84.8994 6.20294 85.0127 6.63322C85.0532 6.78604 85.0897 6.91472 85.0978 6.92276C85.1059 6.93885 86.7458 6.64931 86.766 6.6292C86.7741 6.62116 86.6891 5.84102 86.5757 4.89198C86.4623 3.94697 86.3692 3.14672 86.3692 3.11857C86.3692 3.08237 85.203 3.07031 80.6801 3.07031C76.1573 3.07031 74.9911 3.08237 74.9911 3.11857Z" fill="#FFF0BA"/>
<path d="M90.172 3.07835C90.1356 3.18693 89.7509 5.12924 89.7671 5.14131C89.7752 5.15337 89.8602 5.16141 89.9493 5.16141C90.1518 5.16141 90.4271 5.28205 90.5162 5.40671C90.5526 5.45899 90.581 5.57963 90.581 5.68419C90.581 5.93753 88.4147 12.6813 88.2446 12.9548C88.0826 13.2162 87.8599 13.3328 87.4753 13.3569C87.208 13.373 87.1797 13.3851 87.1797 13.4615C87.1837 13.5057 87.2688 13.9722 87.374 14.4909L87.5684 15.4359H92.1763L92.3707 14.4909C92.476 13.9722 92.561 13.5057 92.565 13.4534C92.565 13.377 92.5448 13.365 92.4233 13.365C92.2209 13.365 92.0184 13.2725 91.9293 13.1398C91.8443 13.0071 91.8443 12.6773 91.9293 12.3998L91.986 12.2189L93.7676 12.2068L95.5493 12.1988L95.6019 12.3677C95.6829 12.6371 95.6991 12.9829 95.6424 13.1237C95.5817 13.2684 95.4197 13.365 95.2375 13.365C95.1363 13.365 95.116 13.381 95.116 13.4534C95.1201 13.5057 95.2051 13.9722 95.3104 14.4909L95.5047 15.4359H100.963L101.157 14.4909C101.263 13.9722 101.348 13.5057 101.352 13.4534C101.352 13.373 101.331 13.365 101.137 13.365C100.68 13.365 100.404 13.2121 100.226 12.8623C100.096 12.6049 97.9099 5.79678 97.9099 5.65201C97.9099 5.34237 98.1488 5.16141 98.5578 5.16141C98.6712 5.16141 98.7602 5.14935 98.7602 5.12924C98.7602 5.11315 98.6671 4.64266 98.5537 4.08369L98.3432 3.07031H94.2576C92.0144 3.07031 90.176 3.07433 90.172 3.07835ZM93.9782 5.46301C94.047 6.03002 94.2131 7.05949 94.29 7.39326C94.3224 7.54607 94.4681 8.1171 94.6139 8.65596C94.7556 9.1908 94.8731 9.64119 94.8731 9.64923C94.8731 9.65728 94.3872 9.66532 93.796 9.66532C92.7918 9.66532 92.723 9.6613 92.7432 9.59293C93.1481 8.25785 93.6219 6.34369 93.8243 5.22977C93.8527 5.08098 93.8891 4.98045 93.9013 5.0086C93.9175 5.03675 93.9499 5.24184 93.9782 5.46301Z" fill="#FFF0BA"/>
<path d="M22.0934 21.135C21.5873 21.1833 20.7856 21.3482 20.3604 21.4929C18.5788 22.0841 17.4977 23.2784 17.0158 25.1805C16.8296 25.9124 16.7891 26.3226 16.7891 27.4807C16.7891 28.3614 16.8053 28.6751 16.8619 29.0289C17.1049 30.4887 17.5746 31.5021 18.3642 32.2862C19.4494 33.3599 21.0569 33.8747 23.3244 33.8747C25.5919 33.8747 27.2763 33.3559 28.3737 32.238C29.3819 31.2085 29.888 29.6201 29.888 27.4807C29.888 24.9633 29.2118 23.2663 27.7865 22.2168C26.997 21.6377 25.8308 21.2516 24.5027 21.131C23.956 21.0787 22.6117 21.0827 22.0934 21.135ZM23.7738 23.9057C24.6363 24.0425 25.0169 24.6014 25.1991 25.9928C25.2761 26.5799 25.2639 28.5142 25.1789 29.1134C25.106 29.6241 24.9967 30.0463 24.859 30.3117C24.7335 30.557 24.4419 30.8426 24.2152 30.935C23.9034 31.0718 23.3973 31.124 22.9802 31.0677C21.9517 30.931 21.5509 30.2474 21.4213 28.4056C21.3727 27.714 21.3929 26.584 21.4699 25.9848C21.5994 24.9191 21.9031 24.3119 22.4336 24.0425C22.7696 23.8776 23.2717 23.8253 23.7738 23.9057Z" fill="#FFF0BA"/>
<path d="M1.06212 22.3005C0.944693 22.8595 0.851562 23.33 0.851562 23.342C0.851562 23.3581 0.977086 23.3782 1.13095 23.3863C1.43869 23.4104 1.62495 23.4908 1.75857 23.6718C1.81526 23.7468 1.8436 25.0162 1.8436 27.48C1.8436 29.9437 1.81526 31.2131 1.75857 31.2882C1.62495 31.4692 1.43869 31.5496 1.13095 31.5737C0.977086 31.5818 0.851562 31.6019 0.851562 31.6179C0.851562 31.63 0.944693 32.1005 1.06212 32.6555L1.27267 33.6729H3.62927C5.84011 33.6729 5.98992 33.6688 6.01017 33.6005C6.05066 33.4838 6.39889 31.7305 6.39889 31.6582C6.39889 31.6059 6.34625 31.5898 6.13569 31.5737C5.79961 31.5456 5.59716 31.441 5.49188 31.2359C5.4109 31.0871 5.40685 30.9946 5.3785 29.0885C5.36636 27.9947 5.34206 26.9693 5.32587 26.8165L5.29752 26.535L5.59716 27.0778C6.01827 27.8339 5.91704 27.6891 8.16027 30.8298L10.1848 33.6688L11.8531 33.6729H13.5254L13.5335 28.7306L13.5456 23.7844L13.6307 23.6718C13.7643 23.4908 13.9505 23.4104 14.2583 23.3863C14.4121 23.3782 14.5377 23.3581 14.5377 23.342C14.5377 23.33 14.4445 22.8595 14.3271 22.3005L14.1166 21.2871H11.76C9.54912 21.2871 9.3993 21.2911 9.37906 21.3555C9.33857 21.4761 8.99034 23.2294 8.99034 23.3018C8.99034 23.3541 9.04298 23.3702 9.25353 23.3863C9.58961 23.4144 9.79207 23.519 9.89735 23.724C9.97833 23.8728 9.98238 23.9693 10.0107 25.5095C10.0229 26.4063 10.0472 27.2829 10.0634 27.4599L10.0877 27.7816L9.80827 27.2548C9.42765 26.539 9.37096 26.4545 7.41117 23.7039L5.69029 21.2911L3.47946 21.2871H1.27267L1.06212 22.3005Z" fill="#FFF0BA"/>
<path d="M31.2868 22.2402C31.1815 22.767 31.0843 23.2334 31.0762 23.2817C31.056 23.3581 31.0762 23.3702 31.3272 23.3943C31.7929 23.4426 32.0358 23.5913 32.214 23.9412C32.2626 24.0417 33.1129 26.2696 34.0969 28.8955L35.8906 33.6729H40.2394L42.0332 28.8955C43.0171 26.2696 43.8796 24.0176 43.9484 23.8849C44.1225 23.5632 44.2886 23.4586 44.7299 23.4064C45.0457 23.3661 45.0741 23.3541 45.0538 23.2777C45.0457 23.2334 44.9486 22.767 44.8433 22.2402L44.653 21.2871H39.7778L39.5875 22.2402C39.4822 22.767 39.385 23.2375 39.3769 23.2817C39.3567 23.3581 39.3769 23.3702 39.5713 23.3943C39.879 23.4345 40.0329 23.535 40.0936 23.7442C40.1463 23.909 40.1382 23.9452 39.5146 25.787C38.8951 27.6167 38.7615 28.0751 38.4902 29.3097C38.4173 29.6394 38.3485 29.8847 38.3363 29.8526C38.3242 29.8204 38.2675 29.5108 38.2067 29.1689C38.0164 28.0671 37.8383 27.3754 37.32 25.6744C37.0406 24.7616 36.8098 23.9533 36.8098 23.8809C36.8098 23.5873 36.9353 23.4586 37.2795 23.4023L37.4455 23.3742L37.2471 22.401C37.1418 21.8662 37.0406 21.3957 37.0284 21.3595C37.0082 21.2911 36.8503 21.2871 34.2426 21.2871H31.4771L31.2868 22.2402Z" fill="#FFF0BA"/>
<path d="M47.2012 21.3555C47.1607 21.4761 46.8125 23.2294 46.8125 23.3018C46.8125 23.3541 46.8651 23.3702 47.0757 23.3863C47.4118 23.4144 47.6142 23.519 47.7195 23.724C47.8045 23.8809 47.8045 23.9211 47.8045 27.48C47.8045 31.0389 47.8045 31.0791 47.7195 31.2359C47.6142 31.441 47.4118 31.5456 47.0757 31.5737C46.8651 31.5898 46.8125 31.6059 46.8125 31.6582C46.8125 31.7305 47.1607 33.4838 47.2012 33.6005C47.2215 33.6688 47.4968 33.6729 52.2424 33.6729C54.9999 33.6729 57.2593 33.6688 57.2633 33.6608C57.2957 33.5562 57.6844 30.1863 57.6683 30.1662C57.6318 30.126 56.0445 29.8486 56 29.8727C55.9798 29.8888 55.9636 29.933 55.9636 29.9732C55.9636 30.1059 55.838 30.4276 55.7166 30.6046C55.5546 30.8378 55.2023 31.0027 54.7488 31.059C54.5626 31.0791 53.9026 31.0992 53.283 31.0992H52.1574V28.6864H52.8984C53.7487 28.6864 53.9916 28.7346 54.1536 28.9236C54.2103 28.992 54.267 29.1207 54.2791 29.2252C54.2953 29.3258 54.3196 29.4102 54.3358 29.4102C54.352 29.4062 54.7286 29.3177 55.174 29.2132L55.9838 29.0202L55.996 27.4036C56 26.5189 55.9919 25.791 55.9757 25.791C55.9555 25.791 55.5748 25.7025 55.1294 25.598L54.3115 25.4009L54.2872 25.5618C54.2427 25.8232 54.1536 25.9519 53.9471 26.0444C53.7811 26.1167 53.6556 26.1288 52.9591 26.1449L52.1574 26.165V23.8206H53.1373C54.267 23.8206 54.5504 23.8568 54.8217 24.0377C55.0242 24.1744 55.2104 24.476 55.255 24.7535C55.2712 24.838 55.2995 24.9144 55.3157 24.9264C55.3481 24.9465 56.6843 24.7334 56.8665 24.6811C56.9313 24.661 56.9354 24.5444 56.9354 22.9721V21.2871H52.0804C47.4887 21.2871 47.2215 21.2911 47.2012 21.3555Z" fill="#FFF0BA"/>
<path d="M59.7731 22.3005C59.6556 22.8595 59.5625 23.33 59.5625 23.342C59.5625 23.3581 59.688 23.3782 59.8419 23.3863C60.1496 23.4104 60.3359 23.4908 60.4695 23.6718C60.5262 23.7468 60.5545 25.0162 60.5545 27.48C60.5545 29.9437 60.5262 31.2131 60.4695 31.2882C60.3359 31.4692 60.1496 31.5496 59.8419 31.5737C59.688 31.5818 59.5625 31.6019 59.5625 31.6179C59.5625 31.63 59.6556 32.1005 59.7731 32.6555L59.9836 33.6729H62.3402C64.551 33.6729 64.7009 33.6688 64.7211 33.6005C64.7616 33.4838 65.1098 31.7305 65.1098 31.6582C65.1098 31.6059 65.0572 31.5898 64.8466 31.5737C64.5106 31.5456 64.3081 31.441 64.2028 31.2359C64.1218 31.0871 64.1178 30.9946 64.0894 29.0885C64.0773 27.9947 64.053 26.9693 64.0368 26.8165L64.0085 26.535L64.3081 27.0778C64.7292 27.8339 64.628 27.6891 66.8712 30.8298L68.8958 33.6688L70.564 33.6729H72.2363L72.2444 28.7306L72.2566 23.7844L72.3416 23.6718C72.4752 23.4908 72.6615 23.4104 72.9692 23.3863C73.1231 23.3782 73.2486 23.3581 73.2486 23.342C73.2486 23.33 73.1555 22.8595 73.038 22.3005L72.8275 21.2871H70.4709C68.2601 21.2871 68.1102 21.2911 68.09 21.3555C68.0495 21.4761 67.7013 23.2294 67.7013 23.3018C67.7013 23.3541 67.7539 23.3702 67.9645 23.3863C68.3006 23.4144 68.503 23.519 68.6083 23.724C68.6893 23.8728 68.6933 23.9693 68.7217 25.5095C68.7338 26.4063 68.7581 27.2829 68.7743 27.4599L68.7986 27.7816L68.5192 27.2548C68.1386 26.539 68.0819 26.4545 66.1221 23.7039L64.4012 21.2911L62.1904 21.2871H59.9836L59.7731 22.3005Z" fill="#FFF0BA"/>
<path d="M75.2333 21.3354C75.2333 21.3635 75.1402 22.1638 75.0268 23.1088C74.9134 24.0578 74.8284 24.838 74.8365 24.846C74.8567 24.8661 76.4966 25.1556 76.5088 25.1396C76.5128 25.1315 76.5371 25.039 76.5655 24.9345C76.6788 24.464 76.9258 24.1624 77.2943 24.0417C77.5413 23.9613 78.007 23.905 78.424 23.901H78.7601L78.7479 27.488C78.7358 31.0268 78.7358 31.0831 78.6508 31.2359C78.5455 31.441 78.343 31.5456 78.007 31.5737C77.7964 31.5898 77.7438 31.6059 77.7438 31.6582C77.7438 31.7305 78.092 33.4838 78.1325 33.6005C78.1527 33.6688 78.3228 33.6729 80.9223 33.6729C83.5219 33.6729 83.6919 33.6688 83.7122 33.6005C83.7527 33.4838 84.1009 31.7305 84.1009 31.6582C84.1009 31.6059 84.0483 31.5898 83.8377 31.5737C83.5016 31.5456 83.2992 31.441 83.1939 31.2359C83.1089 31.0831 83.1089 31.0268 83.0967 27.488L83.0846 23.901H83.4207C83.8094 23.905 84.2507 23.9533 84.4896 24.0176C84.8662 24.1181 85.1415 24.4197 85.2549 24.85C85.2954 25.0028 85.3319 25.1315 85.34 25.1396C85.3481 25.1556 86.988 24.8661 87.0082 24.846C87.0163 24.838 86.9313 24.0578 86.8179 23.1088C86.7045 22.1638 86.6114 21.3635 86.6114 21.3354C86.6114 21.2992 85.4452 21.2871 80.9223 21.2871C76.3994 21.2871 75.2333 21.2992 75.2333 21.3354Z" fill="#FFF0BA"/>
<path d="M90.4533 21.2952C90.4168 21.4037 90.0321 23.346 90.0483 23.3581C90.0564 23.3702 90.1415 23.3782 90.2305 23.3782C90.433 23.3782 90.7083 23.4988 90.7974 23.6235C90.8339 23.6758 90.8622 23.7964 90.8622 23.901C90.8622 24.1543 88.6959 30.8981 88.5259 31.1716C88.3639 31.433 88.1412 31.5496 87.7565 31.5737C87.4893 31.5898 87.4609 31.6019 87.4609 31.6783C87.465 31.7225 87.55 32.189 87.6553 32.7077L87.8497 33.6527H92.4576L92.6519 32.7077C92.7572 32.189 92.8422 31.7225 92.8463 31.6702C92.8463 31.5938 92.8261 31.5818 92.7046 31.5818C92.5021 31.5818 92.2997 31.4893 92.2106 31.3566C92.1256 31.2239 92.1256 30.8941 92.2106 30.6166L92.2673 30.4357L94.0489 30.4236L95.8305 30.4156L95.8832 30.5845C95.9641 30.8539 95.9803 31.1997 95.9236 31.3405C95.8629 31.4852 95.7009 31.5818 95.5187 31.5818C95.4175 31.5818 95.3973 31.5978 95.3973 31.6702C95.4013 31.7225 95.4863 32.189 95.5916 32.7077L95.786 33.6527H101.244L101.439 32.7077C101.544 32.189 101.629 31.7225 101.633 31.6702C101.633 31.5898 101.613 31.5818 101.418 31.5818C100.961 31.5818 100.685 31.4289 100.507 31.0791C100.378 30.8217 98.1912 24.0136 98.1912 23.8688C98.1912 23.5592 98.4301 23.3782 98.839 23.3782C98.9524 23.3782 99.0415 23.3661 99.0415 23.346C99.0415 23.33 98.9484 22.8595 98.835 22.3005L98.6244 21.2871H94.5388C92.2956 21.2871 90.4573 21.2911 90.4533 21.2952ZM94.2594 23.6798C94.3283 24.2468 94.4943 25.2763 94.5712 25.6101C94.6036 25.7629 94.7494 26.3339 94.8952 26.8728C95.0369 27.4076 95.1543 27.858 95.1543 27.866C95.1543 27.8741 94.6684 27.8821 94.0772 27.8821C93.073 27.8821 93.0042 27.8781 93.0245 27.8097C93.4294 26.4746 93.9031 24.5605 94.1056 23.4466C94.1339 23.2978 94.1704 23.1972 94.1825 23.2254C94.1987 23.2535 94.2311 23.4586 94.2594 23.6798Z" fill="#FFF0BA"/>
</svg>
